<svg width="70" height="70" viewBox="0 0 70 70" fill="none" xmlns="http://www.w3.org/2000/svg">
<circle cx="35" cy="35" r="35" fill="#AFE6DD"/>
<path d="M23 32.5C24.6569 32.5 26 31.1569 26 29.5C26 27.8431 24.6569 26.5 23 26.5C21.3431 26.5 20 27.8431 20 29.5C20 31.1569 21.3431 32.5 23 32.5Z" fill="#F0BC5E"/>
<path d="M35 30C36.6569 30 38 28.6569 38 27C38 25.3431 36.6569 24 35 24C33.3431 24 32 25.3431 32 27C32 28.6569 33.3431 30 35 30Z" fill="#F0BC5E"/>
<path d="M47 32.5C48.6569 32.5 50 31.1569 50 29.5C50 27.8431 48.6569 26.5 47 26.5C45.3431 26.5 44 27.8431 44 29.5C44 31.1569 45.3431 32.5 47 32.5Z" fill="#F0BC5E"/>
<path fill-rule="evenodd" clip-rule="evenodd" d="M47 33.5C48.1935 33.5 49.3381 33.9741 50.182 34.818C51.0259 35.6619 51.5 36.8065 51.5 38V43.5525L46.565 38H42.5C42.5 36.8065 42.9741 35.6619 43.818 34.818C44.6619 33.9741 45.8065 33.5 47 33.5V33.5ZM23 33.5C24.1935 33.5 25.3381 33.9741 26.182 34.818C27.0259 35.6619 27.5 36.8065 27.5 38H23.435L18.5 43.552V38C18.5 36.8065 18.9741 35.6619 19.818 34.818C20.6619 33.9741 21.8065 33.5 23 33.5V33.5ZM35 31C36.1935 31 37.3381 31.4741 38.182 32.318C39.0259 33.1619 39.5 34.3065 39.5 35.5V38H30.5V35.5C30.5 34.3065 30.9741 33.1619 31.818 32.318C32.6619 31.4741 33.8065 31 35 31V31Z" fill="#F0BC5E"/>
<path fill-rule="evenodd" clip-rule="evenodd" d="M24.3335 40H45.6665L51 46H19L24.3335 40Z" fill="black"/>
</svg>
