<svg width="50" height="50" viewBox="0 0 50 50" fill="none" xmlns="http://www.w3.org/2000/svg">
<path d="M25 0C11.2125 0 0 11.2125 0 25C0 38.7875 11.2125 50 25 50C38.7875 50 50 38.7875 50 25C50 11.2125 38.7875 0 25 0ZM25 3.125C37.1 3.125 46.875 12.9 46.875 25C46.8823 30.2618 44.984 35.3482 41.5312 39.3187L10.6781 8.47188C14.649 5.01727 19.7367 3.11784 25 3.125ZM8.47188 10.6812L39.3187 41.5281C35.3487 44.982 30.2622 46.8814 25 46.875C12.9 46.875 3.125 37.1 3.125 25C3.125 19.5125 5.14687 14.5156 8.47188 10.6812Z" fill="black"/>
</svg>
