<svg width="50" height="48" viewBox="0 0 50 48" fill="none" xmlns="http://www.w3.org/2000/svg">
<path d="M48.102 0.740723H1.89798C0.851383 0.740723 0 1.59211 0 2.6387V37.6605C0 38.7071 0.851383 39.5585 1.89798 39.5585H19.3243V45.6635H11.7988C11.3582 45.6635 11.001 46.0206 11.001 46.4614C11.001 46.9021 11.3582 47.2592 11.7988 47.2592H38.2012C38.6419 47.2592 38.999 46.9021 38.999 46.4614C38.999 46.0206 38.6419 45.6635 38.2012 45.6635H30.6759V39.5585H48.1021C49.1487 39.5585 50.0001 38.7071 50.0001 37.6605V2.6387C50 1.59211 49.1486 0.740723 48.102 0.740723ZM29.0801 45.6635H20.92V39.5585H29.0801V45.6635ZM48.4043 37.6605C48.4043 37.8243 48.2659 37.9627 48.102 37.9627H1.89798C1.73415 37.9627 1.59574 37.8243 1.59574 37.6605V2.6387C1.59574 2.47487 1.73415 2.33647 1.89798 2.33647H48.102C48.2659 2.33647 48.4043 2.47487 48.4043 2.6387V37.6605Z" fill="black"/>
<path d="M45.9019 31.4711H4.0982C3.65756 31.4711 3.30032 31.8282 3.30032 32.2689C3.30032 32.7097 3.65756 33.0668 4.0982 33.0668H45.9019C46.3427 33.0668 46.6998 32.7097 46.6998 32.2689C46.6998 31.8282 46.3426 31.4711 45.9019 31.4711Z" fill="black"/>
<path d="M13.2624 25.64C16.8095 27.7148 20.8683 28.8115 25 28.8115C29.1318 28.8115 33.1905 27.7148 36.7377 25.64C40.1792 23.6271 43.0662 20.7459 45.0869 17.3082C45.2336 17.0585 45.2336 16.7491 45.0869 16.4994C43.0662 13.0617 40.1791 10.1805 36.7377 8.16752C33.1905 6.09274 29.1318 4.99603 25 4.99603C20.8682 4.99603 16.8094 6.09274 13.2624 8.16752C9.82086 10.1805 6.93373 13.0617 4.9131 16.4994C4.76639 16.7491 4.76639 17.0585 4.9131 17.3082C6.93373 20.7459 9.82086 23.6271 13.2624 25.64ZM24.6893 27.2106C19.1464 27.0457 14.6881 22.4858 14.6881 16.9038C14.6881 11.3217 19.1465 6.76178 24.6893 6.59688C24.7929 6.59539 24.8962 6.59178 25 6.59178C25.1038 6.59178 25.2071 6.59539 25.3108 6.59688C30.8535 6.76178 35.3119 11.3217 35.3119 16.9038C35.3119 22.4858 30.8535 27.0456 25.3108 27.2106C25.2071 27.2121 25.1038 27.2157 25 27.2157C24.8962 27.2157 24.7929 27.2121 24.6893 27.2106ZM43.4677 16.9038C41.0036 20.8925 37.3266 23.9277 33.0816 25.6406C35.433 23.464 36.9077 20.3532 36.9077 16.9038C36.9077 13.4544 35.433 10.3436 33.0815 8.16699C37.3265 9.87976 41.0036 12.9151 43.4677 16.9038ZM16.9185 8.16688C14.567 10.3436 13.0924 13.4544 13.0924 16.9038C13.0924 20.3531 14.567 23.4639 16.9185 25.6406C12.6735 23.9277 8.9965 20.8926 6.53246 16.9038C8.99639 12.915 12.6734 9.87976 16.9185 8.16688Z" fill="black"/>
<path d="M30.3104 16.9037C30.3104 16.1446 30.1521 15.4096 29.8399 14.719C29.6585 14.3176 29.1861 14.1391 28.7843 14.3206C28.3828 14.5021 28.2044 14.9746 28.3859 15.3762C28.604 15.859 28.7147 16.3728 28.7147 16.9037C28.7147 18.952 27.0483 20.6184 25 20.6184C22.9517 20.6184 21.2853 18.952 21.2853 16.9037C21.2853 14.8554 22.9517 13.189 25 13.189C25.5307 13.189 26.0447 13.2996 26.5276 13.5179C26.9291 13.6996 27.4017 13.521 27.5832 13.1195C27.7647 12.718 27.5863 12.2454 27.1848 12.0639C26.494 11.7516 25.7589 11.5933 25 11.5933C22.0718 11.5933 19.6896 13.9756 19.6896 16.9037C19.6896 19.8318 22.0718 22.2141 25 22.2141C27.9281 22.2141 30.3104 19.8318 30.3104 16.9037Z" fill="black"/>
</svg>
