<svg width="60" height="60" viewBox="0 0 60 60" fill="none" xmlns="http://www.w3.org/2000/svg">
<g clip-path="url(#clip0_338_12740)">
<path opacity="0.2" d="M41.25 45H46.875C47.3723 45 47.8492 44.8025 48.2008 44.4508C48.5525 44.0992 48.75 43.6223 48.75 43.125V16.875L39.375 7.5H20.625C20.1277 7.5 19.6508 7.69754 19.2992 8.04918C18.9475 8.40081 18.75 8.87772 18.75 9.375V15H31.875L41.25 24.375V45Z" fill="black"/>
<path d="M39.375 52.5H13.125C12.6277 52.5 12.1508 52.3025 11.7992 51.9508C11.4475 51.5992 11.25 51.1223 11.25 50.625V16.875C11.25 16.3777 11.4475 15.9008 11.7992 15.5492C12.1508 15.1975 12.6277 15 13.125 15H31.875L41.25 24.375V50.625C41.25 51.1223 41.0525 51.5992 40.7008 51.9508C40.3492 52.3025 39.8723 52.5 39.375 52.5Z" stroke="#39868D" stroke-width="4" stroke-linecap="round" stroke-linejoin="round"/>
<path d="M18.75 15V9.375C18.75 8.87772 18.9475 8.40081 19.2992 8.04918C19.6508 7.69754 20.1277 7.5 20.625 7.5H39.375L48.75 16.875V43.125C48.75 43.6223 48.5525 44.0992 48.2008 44.4508C47.8492 44.8025 47.3723 45 46.875 45H41.25" stroke="#39868D" stroke-width="4" stroke-linecap="round" stroke-linejoin="round"/>
<path d="M20.625 35.625H31.875" stroke="#39868D" stroke-width="4" stroke-linecap="round" stroke-linejoin="round"/>
<path d="M20.625 43.125H31.875" stroke="#39868D" stroke-width="4" stroke-linecap="round" stroke-linejoin="round"/>
</g>
<defs>
<clipPath id="clip0_338_12740">
<rect width="60" height="60" fill="white"/>
</clipPath>
</defs>
</svg>
