<svg width="70" height="70" viewBox="0 0 70 70" fill="none" xmlns="http://www.w3.org/2000/svg">
<circle cx="35" cy="35" r="35" fill="#A5E5E2"/>
<g clip-path="url(#clip0_1373_10738)">
<path d="M37.5 28.5731C37.4606 28.2187 37.2637 27.7963 37.1025 27.4994L35.8994 27.5081L35.4938 26.3019C35.3338 26.2688 35.1694 26.25 35 26.25C34.8306 26.25 34.6662 26.2688 34.5062 26.3019L34.1094 27.505L32.8319 27.4994C32.67 27.7963 32.5394 28.2187 32.5 28.5731L33.5475 29.3619L33.1638 30.5862L33.3619 30.3881C33.6106 30.1394 33.9475 30 34.2994 30C34.8675 30 35.3481 30.3588 35.5369 30.8606L36.0538 31.25C36.3594 31.1044 36.6294 30.8975 36.8544 30.6438L36.4525 29.3619L37.5 28.5731Z" fill="#F0BC5E"/>
<path d="M39.1725 29.3619L38.125 28.5731C38.1644 28.2187 38.295 27.7969 38.4569 27.4994L39.7344 27.505L40.1312 26.3019C40.2912 26.2688 40.4556 26.25 40.625 26.25C40.7944 26.25 40.9588 26.2688 41.1188 26.3019L41.5244 27.5081L42.7275 27.4987C42.8894 27.7956 43.0856 28.2181 43.125 28.5725L42.0775 29.3613L42.4794 30.6431C42.2544 30.8962 41.9844 31.1031 41.6788 31.2494L40.625 30.4562L39.5712 31.25C39.2656 31.1044 38.9956 30.8975 38.7706 30.6438L39.1725 29.3619Z" fill="#F0BC5E"/>
<path d="M44.7975 29.3619L43.75 28.5731C43.7894 28.2187 43.92 27.7969 44.0819 27.4994L45.3594 27.505L45.7562 26.3019C45.9162 26.2688 46.0806 26.25 46.25 26.25C46.4194 26.25 46.5838 26.2688 46.7438 26.3019L47.1494 27.5081L48.3525 27.4987C48.5144 27.7956 48.7106 28.2181 48.75 28.5725L47.7025 29.3613L48.1044 30.6431C47.8794 30.8962 47.6094 31.1031 47.3038 31.2494L46.25 30.4562L45.1962 31.25C44.8906 31.1044 44.6206 30.8975 44.3956 30.6438L44.7975 29.3619Z" fill="#F0BC5E"/>
<path d="M46.875 37.5V39.375H45.625V40.625H51.875V37.5H46.875Z" fill="#F0BC5E"/>
<path d="M18.125 23.125V28.75V31.25H23.125V28.75H28.125V23.125H18.125Z" fill="#F0BC5E"/>
<path d="M52.5 15.625H17.5C16.4662 15.625 15.625 16.4662 15.625 17.5V41.25C15.625 42.2838 16.4662 43.125 17.5 43.125H18.4912L15.3662 46.25L23.75 54.6338L27.1337 51.25L26.1962 50.3125L26.55 49.9587L28.9175 49.5644C29.8218 49.4131 30.6431 48.9906 31.2912 48.3425L36.5087 43.125H52.5C53.5337 43.125 54.375 42.2838 54.375 41.25V17.5C54.375 16.4662 53.5337 15.625 52.5 15.625ZM17.5 16.875H52.5C52.845 16.875 53.125 17.1556 53.125 17.5V20.625H16.875V17.5C16.875 17.1556 17.155 16.875 17.5 16.875ZM19.6875 43.8037L19.0087 43.125H20V43.4912L19.6875 43.8037ZM23.75 52.8662L17.1337 46.25L18.75 44.6338L25.3662 51.25L23.75 52.8662ZM30.4075 47.4587C29.9443 47.9219 29.3575 48.2238 28.7118 48.3313L25.9493 48.7913L25.3118 49.4287L20.5712 44.6875L21.25 44.0088V40.9281C21.25 40.0931 21.5756 39.3081 22.1656 38.7181L23.12 37.7638C23.9293 36.9556 24.375 35.8794 24.375 34.7344V34.09C24.375 33.8344 24.6943 33.6669 24.905 33.8075C25.7468 34.3719 26.25 35.3137 26.25 36.3281V36.6162L23.9331 38.9331L23.9012 38.965L24.785 39.8487L24.8168 39.8169L27.5 37.1338L33.8037 30.83C33.9343 30.7 34.115 30.625 34.2993 30.625C34.6856 30.625 35 30.9394 35 31.3256C35 31.5131 34.9275 31.6887 34.795 31.8212L31.045 35.5713L29.5581 37.0581L30.4418 37.9419L31.9287 36.455C32.0593 36.3244 32.24 36.25 32.4243 36.25C32.8106 36.25 33.125 36.5644 33.125 36.9506C33.125 37.135 33.0506 37.3156 32.92 37.4463L31.4331 38.9331L32.3168 39.8169L33.8037 38.33C33.9343 38.1994 34.115 38.125 34.2993 38.125C34.6856 38.125 35 38.4394 35 38.8256C35 39.01 34.9256 39.1906 34.795 39.3213L33.3081 40.8081L34.1918 41.6919L35.6787 40.205C35.8093 40.0744 35.99 40 36.1743 40C36.5606 40 36.875 40.3144 36.875 40.7006C36.875 40.885 36.8006 41.0656 36.67 41.1963L30.4075 47.4587ZM35.2587 33.125L35.6787 32.705C36.0475 32.3369 36.25 31.8469 36.25 31.3256C36.25 30.25 35.375 29.375 34.2993 29.375C33.7856 29.375 33.2831 29.5831 32.92 29.9462L30.625 32.2413V26.25C30.625 25.2163 31.4662 24.375 32.5 24.375H48.75C49.7837 24.375 50.625 25.2163 50.625 26.25V31.25C50.625 32.2838 49.7837 33.125 48.75 33.125H47.2412L43.5668 36.7994C43.4181 36.9488 43.125 36.8275 43.125 36.6162V33.125H35.2587ZM52.5 41.875H37.7212C37.9762 41.5381 38.125 41.1256 38.125 40.7006C38.125 39.6487 37.2862 38.7938 36.2431 38.7569C36.2068 37.7375 35.3875 36.9181 34.3681 36.8819C34.3406 36.1175 33.8762 35.465 33.2137 35.17L34.0087 34.375H41.875V36.6162C41.875 37.4481 42.5518 38.125 43.3837 38.125C43.7812 38.125 44.17 37.9637 44.4506 37.6831L47.7587 34.375H48.75C50.4731 34.375 51.875 32.9731 51.875 31.25V26.25C51.875 24.5269 50.4731 23.125 48.75 23.125H32.5C30.7768 23.125 29.375 24.5269 29.375 26.25V33.4913L27.4043 35.4619C27.18 34.3725 26.545 33.4019 25.6 32.7687C25.3368 32.5925 25.0312 32.5 24.715 32.5C23.8387 32.5 23.125 33.2138 23.125 34.09V34.7344C23.125 35.545 22.8093 36.3075 22.2362 36.88L21.2818 37.8344C20.4556 38.6606 20 39.7594 20 40.9281V41.875H17.5C17.155 41.875 16.875 41.595 16.875 41.25V21.875H53.125V41.25C53.125 41.595 52.845 41.875 52.5 41.875Z" fill="black"/>
<path d="M18.125 18.125H19.375V19.375H18.125V18.125Z" fill="black"/>
<path d="M20.625 18.125H21.875V19.375H20.625V18.125Z" fill="black"/>
<path d="M23.125 18.125H24.375V19.375H23.125V18.125Z" fill="black"/>
<path d="M50.625 39.375H51.875V40.625H50.625V39.375Z" fill="black"/>
<path d="M48.125 39.375H49.375V40.625H48.125V39.375Z" fill="black"/>
<path d="M45.625 39.375H46.875V40.625H45.625V39.375Z" fill="black"/>
<path d="M46.875 36.875H51.875V38.125H46.875V36.875Z" fill="black"/>
<path d="M18.125 23.125H19.375V24.375H18.125V23.125Z" fill="black"/>
<path d="M20.625 23.125H28.125V24.375H20.625V23.125Z" fill="black"/>
<path d="M18.125 25.625H28.125V26.875H18.125V25.625Z" fill="black"/>
<path d="M18.125 28.125H28.125V29.375H18.125V28.125Z" fill="black"/>
<path d="M18.125 30.625H23.125V31.875H18.125V30.625Z" fill="black"/>
</g>
<defs>
<clipPath id="clip0_1373_10738">
<rect width="40" height="40" fill="white" transform="translate(15 15)"/>
</clipPath>
</defs>
</svg>
