<svg width="70" height="70" viewBox="0 0 70 70" fill="none" xmlns="http://www.w3.org/2000/svg">
<circle cx="35" cy="35" r="35" fill="#AFE6DD"/>
<path d="M24.375 35.625H26.25V36.875H24.375V35.625Z" fill="#F0BC5E"/>
<path d="M28.75 38.75H30.625V40H28.75V38.75Z" fill="#F0BC5E"/>
<path d="M24.375 38.75H27.5V40H24.375V38.75Z" fill="#F0BC5E"/>
<path d="M19.375 38.75H23.125V40H19.375V38.75Z" fill="#F0BC5E"/>
<path d="M23.125 41.875H30.625V43.125H23.125V41.875Z" fill="#F0BC5E"/>
<path d="M19.375 41.875H21.875V43.125H19.375V41.875Z" fill="#F0BC5E"/>
<path d="M26.875 45H30.625V46.25H26.875V45Z" fill="#F0BC5E"/>
<path d="M19.375 45H25.625V46.25H19.375V45Z" fill="#F0BC5E"/>
<path d="M23.125 48.1249H26.875V49.375H23.125V48.1249Z" fill="#F0BC5E"/>
<path d="M19.375 48.1249H21.875V49.375H19.375V48.1249Z" fill="#F0BC5E"/>
<path d="M52.5 33.75C52.5 33.5843 52.4341 33.4253 52.3171 33.3081C52.1997 33.1909 52.0407 33.125 51.8751 33.125H48.1249C47.9593 33.125 47.8003 33.1909 47.683 33.3081C47.5659 33.4253 47.5 33.5843 47.5 33.75V36.875H44.375C44.2092 36.875 44.0503 36.9409 43.933 37.0581C43.8159 37.1753 43.75 37.3343 43.75 37.5V40.625H40.625C40.4592 40.625 40.3003 40.6909 40.183 40.8081C40.0659 40.9253 40 41.0843 40 41.25V44.375H36.875C36.7092 44.375 36.5503 44.4409 36.433 44.5581C36.3159 44.6753 36.25 44.8343 36.25 45V48.7502H31.7675C31.6201 48.3331 31.3299 47.9816 30.9484 47.7577C30.5669 47.5339 30.1186 47.4522 29.6827 47.527C29.2467 47.6018 28.8512 47.8282 28.5662 48.1666C28.2811 48.5046 28.1247 48.9328 28.1247 49.3751C28.1247 49.8174 28.2811 50.2453 28.5662 50.5836C28.8512 50.9216 29.2467 51.1482 29.6827 51.223C30.1186 51.2977 30.5669 51.2161 30.9484 50.9921C31.3299 50.7685 31.6201 50.4171 31.7675 50H32.5V51.8751C32.4998 52.0407 32.4339 52.1997 32.3168 52.3167C32.1996 52.4338 32.0407 52.4997 31.875 52.5H18.125C17.9593 52.4997 17.8004 52.4338 17.6833 52.3167C17.5661 52.1997 17.5002 52.0407 17.5 51.8751V37.5H20.625C21.1221 37.4994 21.5987 37.3017 21.9502 36.9502C22.3017 36.5987 22.4994 36.1221 22.5 35.625V32.5H31.875C32.0407 32.5002 32.1996 32.5661 32.3168 32.6833C32.4339 32.8005 32.4998 32.9593 32.5 33.125V33.75H33.75V33.125C33.7494 32.6279 33.5517 32.1513 33.2002 31.7998C32.8487 31.4483 32.3721 31.2506 31.875 31.25H22.3927C22.1464 31.2494 21.9024 31.2975 21.6748 31.3918C21.4472 31.4861 21.2406 31.6246 21.0669 31.7992L16.7992 36.067C16.6245 36.2407 16.486 36.4473 16.3918 36.6749C16.2975 36.9024 16.2493 37.1465 16.25 37.3928V51.8751C16.2506 52.3721 16.4483 52.8489 16.7998 53.2003C17.1513 53.5518 17.6279 53.7495 18.125 53.7502H31.875C32.3721 53.7495 32.8487 53.5518 33.2002 53.2003C33.5517 52.8489 33.7494 52.3721 33.75 51.8751V50H53.7502V48.7502H52.5V33.75ZM21.25 33.3839V35.625C21.2498 35.7907 21.1839 35.9496 21.0668 36.0668C20.9496 36.1839 20.7907 36.2498 20.625 36.25H18.3839L21.25 33.3839ZM30 50C29.8764 50 29.7555 49.9633 29.6528 49.8948C29.55 49.8259 29.4699 49.7285 29.4226 49.6141C29.3753 49.5 29.3629 49.3744 29.387 49.2531C29.4111 49.1318 29.4707 49.0203 29.5581 48.9331C29.6455 48.8456 29.7569 48.7862 29.8781 48.762C29.9993 48.738 30.125 48.7502 30.2392 48.7977C30.3534 48.8449 30.451 48.9249 30.5197 49.0279C30.5884 49.1305 30.625 49.2515 30.625 49.3751C30.6248 49.5407 30.5589 49.6997 30.4417 49.8167C30.3246 49.9338 30.1657 49.9997 30 50ZM37.5 45.625H40V48.7502H37.5V45.625ZM41.25 41.875H43.75V48.7502H41.25V41.875ZM45 38.125H47.5V48.7502H45V38.125ZM48.7502 48.7502V34.375H51.2502V48.7502H48.7502Z" fill="black"/>
<path d="M18.125 31.875C18.4417 31.875 18.7533 31.7949 19.0307 31.6419C19.308 31.4889 19.5421 31.2682 19.7111 31.0003C19.88 30.7324 19.9783 30.426 19.9968 30.1098C20.0153 29.7936 19.9533 29.4779 19.8168 29.1921L21.6921 27.3167C21.9293 27.4301 22.1877 27.4923 22.4505 27.4993C22.7133 27.5063 22.9747 27.4579 23.2175 27.3573C23.4604 27.2567 23.6794 27.1061 23.8603 26.9153C24.0412 26.7246 24.1799 26.4979 24.2675 26.25H26.9825C27.121 26.6418 27.3857 26.9765 27.7351 27.2015C28.0845 27.4265 28.4988 27.529 28.9128 27.4929C29.3268 27.4568 29.7171 27.2842 30.0223 27.0022C30.3275 26.7201 30.5304 26.3446 30.5989 25.9348L34.1286 22.9094C34.5202 23.115 34.9718 23.1755 35.4037 23.0802C35.8356 22.985 36.22 22.7402 36.4888 22.3891C36.7577 22.0379 36.8938 21.603 36.873 21.1612C36.8523 20.7194 36.676 20.2992 36.3754 19.9748C36.0748 19.6503 35.6692 19.4426 35.2303 19.3883C34.7914 19.334 34.3474 19.4366 33.9768 19.678C33.6062 19.9193 33.3328 20.284 33.205 20.7074C33.0772 21.1307 33.1032 21.5857 33.2783 21.9918L30.2882 24.5547C30.0915 24.2715 29.8203 24.048 29.5047 23.9089C29.189 23.7699 28.8411 23.7207 28.4992 23.7667C28.1574 23.8128 27.8349 23.9523 27.5673 24.1699C27.2997 24.3875 27.0973 24.6747 26.9825 25H24.2675C24.1827 24.76 24.0499 24.5397 23.8772 24.3526C23.7045 24.1656 23.4955 24.0157 23.2629 23.9121C23.0304 23.8084 22.7792 23.7533 22.5247 23.7499C22.2701 23.7465 22.0175 23.795 21.7823 23.8924C21.5471 23.9899 21.3342 24.1342 21.1566 24.3165C20.979 24.4989 20.8404 24.7156 20.7493 24.9533C20.6581 25.191 20.6164 25.4447 20.6265 25.6991C20.6366 25.9535 20.6985 26.2031 20.8082 26.4328L18.9329 28.3082C18.6789 28.1869 18.401 28.1244 18.1195 28.1252C17.8381 28.126 17.5605 28.1901 17.3073 28.3129C17.054 28.4356 16.8316 28.6137 16.6566 28.8341C16.4816 29.0545 16.3585 29.3114 16.2963 29.5859C16.2342 29.8604 16.2346 30.1453 16.2975 30.4196C16.3605 30.6939 16.4844 30.9504 16.66 31.1703C16.8357 31.3902 17.0586 31.5677 17.3122 31.6897C17.5658 31.8117 17.8436 31.875 18.125 31.875ZM35 20.625C35.1236 20.625 35.2445 20.6616 35.3472 20.7303C35.45 20.799 35.5301 20.8966 35.5774 21.0108C35.6247 21.125 35.6371 21.2507 35.613 21.3719C35.5889 21.4931 35.5293 21.6045 35.4419 21.6919C35.3545 21.7793 35.2432 21.8388 35.1219 21.863C35.0007 21.8871 34.875 21.8747 34.7608 21.8274C34.6466 21.7801 34.549 21.7 34.4803 21.5972C34.4116 21.4944 34.375 21.3736 34.375 21.25C34.3752 21.0843 34.4411 20.9254 34.5583 20.8082C34.6754 20.6911 34.8343 20.6252 35 20.625ZM28.75 25C28.8736 25 28.9945 25.0366 29.0972 25.1053C29.2 25.174 29.2801 25.2716 29.3274 25.3858C29.3747 25.5 29.3871 25.6257 29.363 25.7469C29.3389 25.8682 29.2793 25.9795 29.1919 26.0669C29.1045 26.1543 28.9932 26.2139 28.8719 26.238C28.7507 26.2621 28.625 26.2497 28.5108 26.2024C28.3966 26.1551 28.299 26.075 28.2303 25.9722C28.1616 25.8694 28.125 25.7486 28.125 25.625C28.1252 25.4593 28.1911 25.3004 28.3083 25.1832C28.4254 25.0661 28.5843 25.0002 28.75 25ZM22.5 25C22.6236 25 22.7445 25.0366 22.8472 25.1053C22.95 25.174 23.0301 25.2716 23.0774 25.3858C23.1247 25.5 23.1371 25.6257 23.113 25.7469C23.0889 25.8682 23.0293 25.9795 22.9419 26.0669C22.8545 26.1543 22.7432 26.2139 22.6219 26.238C22.5007 26.2621 22.375 26.2497 22.2608 26.2024C22.1466 26.1551 22.049 26.075 21.9803 25.9722C21.9116 25.8694 21.875 25.7486 21.875 25.625C21.8752 25.4593 21.9411 25.3004 22.0583 25.1832C22.1754 25.0661 22.3343 25.0002 22.5 25ZM18.125 29.375C18.2486 29.375 18.3694 29.4116 18.4722 29.4803C18.575 29.549 18.6551 29.6466 18.7024 29.7608C18.7497 29.875 18.7621 30.0007 18.738 30.1219C18.7139 30.2431 18.6544 30.3545 18.567 30.4419C18.4795 30.5293 18.3682 30.5888 18.2469 30.613C18.1257 30.6371 18 30.6247 17.8858 30.5774C17.7716 30.5301 17.674 30.45 17.6053 30.3472C17.5367 30.2444 17.5 30.1236 17.5 30C17.5002 29.8343 17.5661 29.6754 17.6833 29.5582C17.8004 29.4411 17.9593 29.3752 18.125 29.375Z" fill="#F0BC5E"/>
<path d="M40.7476 30.8688L36.6164 35H31.1428C30.9953 34.583 30.7052 34.2316 30.3237 34.0078C29.9422 33.784 29.4939 33.7022 29.0579 33.777C28.622 33.8518 28.2265 34.0783 27.9414 34.4165C27.6564 34.7546 27.5 35.1827 27.5 35.625C27.5 36.0673 27.6564 36.4954 27.9414 36.8336C28.2265 37.1717 28.622 37.3982 29.0579 37.473C29.4939 37.5478 29.9422 37.4661 30.3237 37.2423C30.7052 37.0185 30.9953 36.667 31.1428 36.25H32.5003V47.5H33.7503V36.25H36.8753C37.041 36.25 37.2 36.1842 37.3172 36.0669L41.828 31.5562C43.6876 32.5432 45.8571 32.772 47.8816 32.1946C49.9062 31.6173 51.6289 30.2786 52.6882 28.4592C53.7475 26.6399 54.0613 24.4811 53.5643 22.4353C53.0669 20.3896 51.7971 18.6158 50.0207 17.4857C48.2443 16.3557 46.0996 15.9571 44.0359 16.3735C41.9722 16.79 40.1498 17.9891 38.9508 19.7196C37.7517 21.4501 37.2691 23.5776 37.6041 25.6561C37.939 27.7345 39.0656 29.6026 40.7476 30.8688V30.8688ZM29.3753 36.25C29.2517 36.25 29.1308 36.2134 29.0281 36.1447C28.9253 36.076 28.8451 35.9784 28.7979 35.8642C28.7506 35.75 28.7382 35.6243 28.7623 35.5031C28.7864 35.3819 28.8459 35.2705 28.9333 35.1831C29.0208 35.0957 29.1321 35.0361 29.2533 35.012C29.3746 34.9879 29.5003 35.0003 29.6145 35.0476C29.7287 35.0949 29.8263 35.175 29.895 35.2778C29.9636 35.3806 30.0003 35.5014 30.0003 35.625C30.0001 35.7907 29.9342 35.9496 29.817 36.0667C29.6998 36.1839 29.541 36.2498 29.3753 36.25ZM50.6387 29.0742L47.0171 25H52.4715C52.3328 26.5247 51.6875 27.9591 50.6387 29.0742ZM52.4715 23.75H46.2503V17.5287C47.8502 17.677 49.3479 18.3801 50.4839 19.5163C51.6203 20.6524 52.3233 22.1501 52.4715 23.75ZM45.0003 17.5287V24.375C45.0002 24.5281 45.0566 24.6757 45.1587 24.7898L45.1581 24.7902L49.7049 29.9053C48.8515 30.5348 47.8639 30.9585 46.8196 31.1429C45.7753 31.3274 44.7025 31.2678 43.6851 30.9686C42.6676 30.6695 41.7332 30.139 40.955 29.4186C40.1767 28.6983 39.5756 27.8076 39.1988 26.8163C38.822 25.8251 38.6797 24.7601 38.783 23.7046C38.8863 22.6492 39.2323 21.6319 39.7942 20.7325C40.356 19.8331 41.1183 19.0758 42.0215 18.52C42.9247 17.9642 43.9442 17.6249 45.0003 17.5287Z" fill="black"/>
</svg>
